<svg width="24" height="24" viewBox="0 0 24 24" fill="none" xmlns="http://www.w3.org/2000/svg">
<path d="M12 22C17.5228 22 22 17.5228 22 12C22 6.47715 17.5228 2 12 2C6.47715 2 2 6.47715 2 12C2 17.5228 6.47715 22 12 22Z" stroke="#58627A" stroke-width="2" stroke-linecap="round" stroke-linejoin="round"/>
<path fill-rule="evenodd" clip-rule="evenodd" d="M9.00896 11.765C9.06364 11.0592 9.36259 10.4219 9.82137 9.93745L3.40603 7.08618L2.59375 8.9138L9.00896 11.765ZM10.9999 14.8293C11.3127 14.9398 11.6493 15 11.9999 15C12.3505 15 12.6871 14.9398 12.9999 14.8293V21H10.9999V14.8293ZM14.9908 11.765L21.406 8.9138L20.5938 7.08618L14.1784 9.93745C14.6372 10.4219 14.9361 11.0592 14.9908 11.765Z" fill="#58627A"/>
<path d="M12 15C13.6569 15 15 13.6569 15 12C15 10.3431 13.6569 9 12 9C10.3431 9 9 10.3431 9 12C9 13.6569 10.3431 15 12 15Z" stroke="#58627A" stroke-width="2" stroke-linecap="round" stroke-linejoin="round"/>
</svg>
