<svg width="18" height="18" viewBox="0 0 18 18" fill="none" xmlns="http://www.w3.org/2000/svg">
<path d="M15 7.54545C15 12.6364 8.5 17 8.5 17C8.5 17 2 12.6364 2 7.54545C2 5.80949 2.68482 4.14463 3.90381 2.91712C5.12279 1.68961 6.77609 1 8.5 1C10.2239 1 11.8772 1.68961 13.0962 2.91712C14.3152 4.14463 15 5.80949 15 7.54545Z" stroke="#1B263D" stroke-width="1.5" stroke-linecap="round" stroke-linejoin="round"/>
<path d="M8.5026 9.72728C9.69922 9.72728 10.6693 8.75045 10.6693 7.54547C10.6693 6.34048 9.69922 5.36365 8.5026 5.36365C7.30599 5.36365 6.33594 6.34048 6.33594 7.54547C6.33594 8.75045 7.30599 9.72728 8.5026 9.72728Z" stroke="#1B263D" stroke-width="1.5" stroke-linecap="round" stroke-linejoin="round"/>
</svg>
